<?xml version="1.0" standalone="no"?>
<!DOCTYPE svg PUBLIC "-//W3C//DTD SVG 20010904//EN"
 "http://www.w3.org/TR/2001/REC-SVG-20010904/DTD/svg10.dtd">
<svg version="1.0" xmlns="http://www.w3.org/2000/svg"
 width="915.000000pt" height="219.000000pt" viewBox="0 0 915.000000 219.000000"
 preserveAspectRatio="xMidYMid meet">

<g transform="translate(0.000000,219.000000) scale(0.100000,-0.100000)"
fill="#FFFFFF" stroke="none">
<path d="M0 1095 l0 -1095 4575 0 4575 0 0 1095 0 1095 -4575 0 -4575 0 0
-1095z m3640 925 c19 -19 20 -33 20 -201 0 -223 -6 -239 -87 -239 -65 0 -72
18 -79 196 -8 167 -2 216 27 245 26 26 92 26 119 -1z m3182 -52 l21 -21 -7
-491 c-4 -270 -11 -573 -14 -673 -7 -162 -10 -185 -28 -210 -29 -38 -102 -45
-135 -12 -22 22 -22 24 -15 258 3 130 9 414 11 631 6 454 9 494 36 521 28 28
102 26 131 -3z m-821 -24 c119 -34 247 -135 301 -235 20 -39 23 -57 23 -164 0
-114 -2 -123 -31 -185 -17 -36 -50 -86 -72 -111 l-42 -47 66 -38 c122 -71 174
-142 174 -236 -1 -99 -56 -179 -179 -260 -125 -81 -320 -128 -537 -128 l-106
0 -34 34 -34 34 0 258 c0 143 5 327 10 409 5 83 12 249 16 370 4 141 11 231
19 252 14 32 12 32 140 57 56 11 235 5 286 -10z m-4989 -89 c77 -16 145 -44
171 -69 22 -22 22 -84 0 -108 -21 -23 -96 -24 -190 -2 -46 11 -98 15 -160 12
-81 -3 -100 -8 -159 -38 -85 -44 -125 -92 -131 -157 -4 -41 -1 -51 19 -69 35
-33 101 -51 231 -64 204 -20 289 -52 378 -140 79 -78 102 -143 97 -270 -4 -80
-9 -104 -32 -150 -55 -106 -167 -190 -321 -242 -61 -20 -89 -23 -225 -23 -143
0 -161 2 -238 28 -93 32 -176 91 -204 147 -10 19 -18 56 -18 83 0 61 24 87 81
87 36 0 46 -5 73 -37 105 -124 145 -143 302 -143 165 0 315 67 372 165 33 57
28 148 -11 199 -57 74 -150 110 -341 131 -151 17 -226 41 -287 93 -56 48 -79
101 -79 183 0 50 6 77 26 116 51 105 220 231 355 267 70 19 206 19 291 1z
m3686 -296 c21 -22 42 -132 42 -218 0 -64 -25 -91 -84 -91 -52 0 -72 19 -82
78 -4 23 -10 42 -14 42 -20 0 -201 -60 -236 -78 -43 -22 -94 -74 -94 -96 0 -7
49 -23 120 -39 265 -62 370 -162 370 -351 0 -86 -21 -137 -77 -187 -66 -59
-138 -82 -278 -87 -131 -4 -209 10 -294 53 -64 32 -83 57 -89 114 -4 43 -1 53
21 75 34 34 85 35 124 3 48 -39 85 -50 189 -55 187 -9 267 52 204 155 -26 44
-76 67 -219 102 -208 51 -251 89 -251 221 0 152 72 230 263 290 56 17 138 44
182 60 101 35 176 38 203 9z m-2127 -45 c20 -21 24 -38 27 -101 l4 -75 67 65
c85 85 152 117 242 117 90 0 143 -28 185 -98 42 -69 54 -138 55 -306 0 -78 4
-179 10 -226 5 -47 12 -139 15 -206 l7 -120 -28 -22 c-39 -31 -104 -30 -134 1
-30 33 -41 126 -49 452 -9 305 -13 328 -70 333 -100 10 -223 -123 -294 -315
-20 -55 -25 -129 -28 -415 0 -53 -106 -81 -145 -38 -31 35 -36 115 -29 529 l7
405 23 23 c34 34 102 32 135 -3z m-945 -15 c18 -20 19 -40 19 -338 0 -367 4
-397 51 -417 52 -22 211 -15 305 12 14 4 17 44 22 332 7 334 13 394 47 412 33
18 94 12 119 -11 l22 -21 -7 -457 c-6 -444 -7 -457 -27 -479 -17 -19 -30 -22
-67 -20 -38 3 -48 8 -65 36 -22 35 -20 35 -115 8 -74 -21 -222 -21 -285 1 -68
23 -130 87 -149 155 -25 86 -39 323 -33 532 7 247 18 276 102 276 30 0 47 -6
61 -21z m6004 -30 c132 -59 210 -218 210 -427 0 -133 -12 -191 -60 -288 -49
-100 -122 -172 -208 -204 -78 -30 -213 -25 -287 10 -99 48 -187 163 -214 281
-15 65 -13 227 4 292 43 167 149 293 286 341 67 23 212 21 269 -5z m995 0 c22
-6 56 -24 76 -39 19 -16 47 -32 62 -35 14 -4 33 -18 41 -31 21 -30 21 -139 1
-262 -8 -50 -24 -215 -35 -366 -26 -351 -49 -447 -131 -541 -73 -82 -175 -115
-362 -115 -148 0 -216 12 -257 47 -25 20 -30 32 -30 67 0 65 22 80 107 72 37
-4 118 -9 180 -12 103 -6 116 -4 159 16 47 23 94 77 120 139 20 48 44 191 44
264 l0 61 -28 -45 c-59 -92 -125 -129 -231 -129 -166 0 -290 94 -336 255 -25
86 -17 265 17 356 55 148 169 253 321 294 63 17 227 19 282 4z"/>
<path d="M5740 1668 c0 -57 -3 -168 -7 -247 l-6 -143 104 4 c119 5 171 23 237
82 84 76 108 195 54 274 -32 48 -79 86 -140 113 -33 14 -67 19 -143 19 l-99 0
0 -102z"/>
<path d="M5710 1047 c0 -24 -3 -105 -7 -180 l-6 -137 52 0 c118 0 301 42 376
86 55 32 115 92 115 115 0 40 -164 119 -298 145 -41 8 -109 14 -153 14 l-79 0
0 -43z"/>
<path d="M7393 1279 c-93 -46 -144 -145 -151 -292 -4 -90 -2 -101 23 -153 20
-41 40 -64 74 -86 41 -26 53 -29 112 -26 160 8 243 145 219 357 -11 100 -41
167 -89 198 -45 31 -129 31 -188 2z"/>
<path d="M8368 1272 c-65 -23 -133 -83 -165 -145 -22 -43 -27 -68 -31 -147 -3
-84 -1 -100 20 -139 33 -64 66 -84 143 -89 55 -4 70 -1 108 21 52 31 108 91
137 146 21 43 63 265 58 310 -2 18 -14 31 -38 43 -46 24 -168 23 -232 0z"/>
</g>
</svg>
